<svg xmlns="http://www.w3.org/2000/svg" xmlns:xlink="http://www.w3.org/1999/xlink" width="500" zoomAndPan="magnify" viewBox="0 0 375 374.999991" height="500" preserveAspectRatio="xMidYMid meet" version="1.0"><defs><g/><clipPath id="ab82d677d8"><path d="M 105 194 L 137 194 L 137 227 L 105 227 Z M 105 194 " clip-rule="nonzero"/></clipPath><clipPath id="91684d9367"><path d="M 123.011719 194.746094 L 136.621094 207.558594 L 118.703125 226.589844 L 105.09375 213.773438 Z M 123.011719 194.746094 " clip-rule="nonzero"/></clipPath><clipPath id="9a7bce4d41"><path d="M 123.011719 194.746094 L 136.621094 207.558594 L 118.746094 226.542969 L 105.136719 213.730469 Z M 123.011719 194.746094 " clip-rule="nonzero"/></clipPath><clipPath id="158e67b4ff"><path d="M 63.265625 175.117188 L 91.78125 175.117188 L 91.78125 203.632812 L 63.265625 203.632812 Z M 63.265625 175.117188 " clip-rule="nonzero"/></clipPath><clipPath id="949b7ff944"><path d="M 77.523438 175.117188 C 69.648438 175.117188 63.265625 181.5 63.265625 189.375 C 63.265625 197.25 69.648438 203.632812 77.523438 203.632812 C 85.398438 203.632812 91.78125 197.25 91.78125 189.375 C 91.78125 181.5 85.398438 175.117188 77.523438 175.117188 Z M 77.523438 175.117188 " clip-rule="nonzero"/></clipPath><clipPath id="5b64c8043e"><path d="M 53 182.179688 L 84.601562 182.179688 L 84.601562 214 L 53 214 Z M 53 182.179688 " clip-rule="nonzero"/></clipPath></defs><rect x="-37.5" width="450" fill="#ffffff" y="-37.499999" height="449.999989" fill-opacity="1"/><rect x="-37.5" width="450" fill="#ffffff" y="-37.499999" height="449.999989" fill-opacity="1"/><g fill="#020202" fill-opacity="1"><g transform="translate(26.093316, 209.249986)"><g><path d="M 10 -28.765625 L 3.828125 -28.765625 L 3.828125 -36.0625 L 10 -36.0625 L 10 -51.171875 C 10 -56.390625 11.1875 -60.390625 13.5625 -63.171875 C 15.9375 -65.953125 19.410156 -67.34375 23.984375 -67.34375 C 25.253906 -67.34375 26.613281 -67.148438 28.0625 -66.765625 C 29.507812 -66.390625 30.785156 -65.859375 31.890625 -65.171875 L 28.40625 -59.265625 C 27.539062 -60.191406 26.328125 -60.65625 24.765625 -60.65625 C 22.566406 -60.65625 20.898438 -59.898438 19.765625 -58.390625 C 18.640625 -56.878906 18.078125 -54.445312 18.078125 -51.09375 L 18.078125 -36.0625 L 29.546875 -36.0625 L 29.546875 -28.765625 L 18.078125 -28.765625 L 18.078125 0 L 10 0 Z M 10 -28.765625 "/></g></g></g><g fill="#020202" fill-opacity="1"><g transform="translate(53.547747, 209.249986)"><g><path d="M 3.90625 -18.328125 C 3.90625 -21.867188 4.757812 -25.097656 6.46875 -28.015625 C 8.175781 -30.941406 10.550781 -33.242188 13.59375 -34.921875 C 16.632812 -36.609375 20.066406 -37.453125 23.890625 -37.453125 C 27.710938 -37.453125 31.113281 -36.609375 34.09375 -34.921875 C 37.082031 -33.242188 39.398438 -30.957031 41.046875 -28.0625 C 42.703125 -25.164062 43.53125 -21.921875 43.53125 -18.328125 C 43.53125 -14.742188 42.703125 -11.488281 41.046875 -8.5625 C 39.398438 -5.632812 37.070312 -3.328125 34.0625 -1.640625 C 31.050781 0.0351562 27.601562 0.875 23.71875 0.875 C 19.957031 0.875 16.566406 0.078125 13.546875 -1.515625 C 10.535156 -3.109375 8.175781 -5.351562 6.46875 -8.25 C 4.757812 -11.144531 3.90625 -14.503906 3.90625 -18.328125 Z M 12.078125 -18.25 C 12.078125 -15.988281 12.582031 -13.898438 13.59375 -11.984375 C 14.613281 -10.078125 16.003906 -8.570312 17.765625 -7.46875 C 19.535156 -6.375 21.492188 -5.828125 23.640625 -5.828125 C 26.992188 -5.828125 29.769531 -7.015625 31.96875 -9.390625 C 34.175781 -11.765625 35.28125 -14.71875 35.28125 -18.25 C 35.28125 -21.78125 34.175781 -24.75 31.96875 -27.15625 C 29.769531 -29.5625 26.992188 -30.765625 23.640625 -30.765625 C 21.429688 -30.765625 19.457031 -30.195312 17.71875 -29.0625 C 15.988281 -27.9375 14.613281 -26.414062 13.59375 -24.5 C 12.582031 -22.59375 12.078125 -20.507812 12.078125 -18.25 Z M 12.078125 -18.25 "/></g></g></g><g fill="#020202" fill-opacity="1"><g transform="translate(95.337849, 209.249986)"><g><path d="M 14.859375 -27.453125 C 15.785156 -29.421875 17.101562 -31.160156 18.8125 -32.671875 C 20.519531 -34.179688 22.328125 -35.335938 24.234375 -36.140625 C 26.148438 -36.953125 27.832031 -37.390625 29.28125 -37.453125 L 28.9375 -29.375 C 26.332031 -29.488281 23.972656 -28.960938 21.859375 -27.796875 C 19.742188 -26.640625 18.09375 -25.03125 16.90625 -22.96875 C 15.71875 -20.914062 15.125 -18.734375 15.125 -16.421875 L 15.125 0 L 7.03125 0 L 7.03125 -35.96875 L 14.25 -35.96875 Z M 14.859375 -27.453125 "/></g></g></g><g fill="#020202" fill-opacity="1"><g transform="translate(122.444758, 209.249986)"><g><path d="M 53.171875 -37.453125 C 56.648438 -37.453125 59.414062 -36.46875 61.46875 -34.5 C 63.53125 -32.53125 64.617188 -29.921875 64.734375 -26.671875 L 64.734375 0 L 56.65625 0 L 56.65625 -23.71875 C 56.476562 -27.945312 54.566406 -30.175781 50.921875 -30.40625 C 48.835938 -30.40625 46.96875 -29.78125 45.3125 -28.53125 C 43.664062 -27.289062 42.378906 -25.65625 41.453125 -23.625 C 40.523438 -21.601562 40.03125 -19.4375 39.96875 -17.125 L 39.96875 0 L 31.796875 0 L 31.796875 -23.71875 C 31.628906 -27.945312 29.660156 -30.175781 25.890625 -30.40625 C 23.867188 -30.40625 22.03125 -29.78125 20.375 -28.53125 C 18.726562 -27.289062 17.441406 -25.640625 16.515625 -23.578125 C 15.585938 -21.523438 15.125 -19.34375 15.125 -17.03125 L 15.125 0 L 7.03125 0 L 7.03125 -35.96875 L 14.34375 -35.96875 L 14.9375 -29.1875 C 16.332031 -31.800781 18.234375 -33.832031 20.640625 -35.28125 C 23.046875 -36.726562 25.78125 -37.453125 28.84375 -37.453125 C 31.738281 -37.453125 34.171875 -36.769531 36.140625 -35.40625 C 38.109375 -34.039062 39.382812 -32.171875 39.96875 -29.796875 C 41.476562 -32.171875 43.390625 -34.039062 45.703125 -35.40625 C 48.023438 -36.769531 50.515625 -37.453125 53.171875 -37.453125 Z M 53.171875 -37.453125 "/></g></g></g><g fill="#020202" fill-opacity="1"><g transform="translate(188.562044, 209.249986)"><g><path d="M 43.96875 -35.96875 L 43.96875 0 L 35.890625 0 L 35.890625 -5.90625 C 34.609375 -4.226562 32.75 -2.675781 30.3125 -1.25 C 27.882812 0.164062 25.132812 0.875 22.0625 0.875 C 18.644531 0.875 15.5625 0.132812 12.8125 -1.34375 C 10.0625 -2.820312 7.890625 -4.976562 6.296875 -7.8125 C 4.703125 -10.65625 3.90625 -14.046875 3.90625 -17.984375 C 3.90625 -21.921875 4.726562 -25.351562 6.375 -28.28125 C 8.03125 -31.207031 10.265625 -33.46875 13.078125 -35.0625 C 15.890625 -36.65625 19.003906 -37.453125 22.421875 -37.453125 C 25.484375 -37.453125 28.144531 -36.785156 30.40625 -35.453125 C 32.664062 -34.117188 34.492188 -32.378906 35.890625 -30.234375 L 36.5 -35.96875 Z M 24.25 -5.828125 C 27.195312 -5.828125 29.726562 -6.648438 31.84375 -8.296875 C 33.957031 -9.953125 35.304688 -12.195312 35.890625 -15.03125 L 35.890625 -22.15625 C 35.191406 -24.707031 33.738281 -26.78125 31.53125 -28.375 C 29.332031 -29.96875 26.816406 -30.765625 23.984375 -30.765625 C 21.835938 -30.765625 19.851562 -30.238281 18.03125 -29.1875 C 16.207031 -28.144531 14.757812 -26.679688 13.6875 -24.796875 C 12.613281 -22.921875 12.078125 -20.796875 12.078125 -18.421875 C 12.078125 -16.097656 12.625 -13.976562 13.71875 -12.0625 C 14.820312 -10.15625 16.300781 -8.640625 18.15625 -7.515625 C 20.007812 -6.390625 22.039062 -5.828125 24.25 -5.828125 Z M 24.25 -5.828125 "/></g></g></g><g fill="#020202" fill-opacity="1"><g transform="translate(234.001231, 209.249986)"><g><path d="M 18.6875 -51.78125 L 18.6875 -35.890625 L 28.5 -35.890625 L 28.5 -29.453125 L 18.6875 -29.453125 L 18.6875 0 L 10.515625 0 L 10.515625 -29.453125 L 3.90625 -29.453125 L 3.90625 -35.890625 L 10.515625 -35.890625 L 10.515625 -51.78125 Z M 18.6875 -51.78125 "/></g></g></g><g fill="#020202" fill-opacity="1"><g transform="translate(259.718027, 209.249986)"><g><path d="M 15.125 -35.96875 L 15.125 0 L 7.03125 0 L 7.03125 -35.96875 Z M 6.421875 -48.921875 C 6.421875 -50.203125 6.910156 -51.273438 7.890625 -52.140625 C 8.878906 -53.015625 10.015625 -53.453125 11.296875 -53.453125 C 12.566406 -53.453125 13.675781 -53.015625 14.625 -52.140625 C 15.582031 -51.273438 16.0625 -50.203125 16.0625 -48.921875 C 16.0625 -47.648438 15.582031 -46.578125 14.625 -45.703125 C 13.675781 -44.835938 12.566406 -44.40625 11.296875 -44.40625 C 10.015625 -44.40625 8.878906 -44.835938 7.890625 -45.703125 C 6.910156 -46.578125 6.421875 -47.648438 6.421875 -48.921875 Z M 6.421875 -48.921875 "/></g></g></g><g fill="#020202" fill-opacity="1"><g transform="translate(276.312096, 209.249986)"><g><path d="M 3.90625 -18.328125 C 3.90625 -21.867188 4.757812 -25.097656 6.46875 -28.015625 C 8.175781 -30.941406 10.550781 -33.242188 13.59375 -34.921875 C 16.632812 -36.609375 20.066406 -37.453125 23.890625 -37.453125 C 27.710938 -37.453125 31.113281 -36.609375 34.09375 -34.921875 C 37.082031 -33.242188 39.398438 -30.957031 41.046875 -28.0625 C 42.703125 -25.164062 43.53125 -21.921875 43.53125 -18.328125 C 43.53125 -14.742188 42.703125 -11.488281 41.046875 -8.5625 C 39.398438 -5.632812 37.070312 -3.328125 34.0625 -1.640625 C 31.050781 0.0351562 27.601562 0.875 23.71875 0.875 C 19.957031 0.875 16.566406 0.078125 13.546875 -1.515625 C 10.535156 -3.109375 8.175781 -5.351562 6.46875 -8.25 C 4.757812 -11.144531 3.90625 -14.503906 3.90625 -18.328125 Z M 12.078125 -18.25 C 12.078125 -15.988281 12.582031 -13.898438 13.59375 -11.984375 C 14.613281 -10.078125 16.003906 -8.570312 17.765625 -7.46875 C 19.535156 -6.375 21.492188 -5.828125 23.640625 -5.828125 C 26.992188 -5.828125 29.769531 -7.015625 31.96875 -9.390625 C 34.175781 -11.765625 35.28125 -14.71875 35.28125 -18.25 C 35.28125 -21.78125 34.175781 -24.75 31.96875 -27.15625 C 29.769531 -29.5625 26.992188 -30.765625 23.640625 -30.765625 C 21.429688 -30.765625 19.457031 -30.195312 17.71875 -29.0625 C 15.988281 -27.9375 14.613281 -26.414062 13.59375 -24.5 C 12.582031 -22.59375 12.078125 -20.507812 12.078125 -18.25 Z M 12.078125 -18.25 "/></g></g></g><g fill="#020202" fill-opacity="1"><g transform="translate(318.102208, 209.249986)"><g><path d="M 29.375 -37.359375 C 32.726562 -37.359375 35.503906 -36.359375 37.703125 -34.359375 C 39.910156 -32.367188 41.039062 -29.78125 41.09375 -26.59375 L 41.09375 0 L 32.9375 0 L 32.9375 -23.8125 C 32.8125 -25.832031 32.195312 -27.421875 31.09375 -28.578125 C 30 -29.742188 28.351562 -30.351562 26.15625 -30.40625 C 22.96875 -30.40625 20.332031 -29.128906 18.25 -26.578125 C 16.164062 -24.035156 15.125 -20.796875 15.125 -16.859375 L 15.125 0 L 7.03125 0 L 7.03125 -35.96875 L 14.34375 -35.96875 L 14.859375 -29.015625 C 16.128906 -31.628906 18.039062 -33.671875 20.59375 -35.140625 C 23.144531 -36.617188 26.070312 -37.359375 29.375 -37.359375 Z M 29.375 -37.359375 "/></g></g></g><g clip-path="url(#ab82d677d8)"><g clip-path="url(#91684d9367)"><g clip-path="url(#9a7bce4d41)"><path fill="#ffffff" d="M 123.011719 194.746094 L 136.621094 207.558594 L 118.753906 226.535156 L 105.144531 213.722656 Z M 123.011719 194.746094 " fill-opacity="1" fill-rule="nonzero"/></g></g></g><g clip-path="url(#158e67b4ff)"><g clip-path="url(#949b7ff944)"><path fill="#8cc342" d="M 63.265625 175.117188 L 91.78125 175.117188 L 91.78125 203.632812 L 63.265625 203.632812 Z M 63.265625 175.117188 " fill-opacity="1" fill-rule="nonzero"/></g></g><g clip-path="url(#5b64c8043e)"><path fill="#000000" d="M 77.039062 197.597656 C 78.90625 195.730469 84.589844 189.554688 84.589844 189.554688 C 84.589844 189.554688 84.1875 188.9375 83.210938 187.816406 L 76.949219 194.078125 C 76.597656 194.429688 76.035156 194.429688 75.6875 194.082031 C 75.339844 193.730469 75.339844 193.167969 75.6875 192.816406 L 82.007812 186.496094 C 81.761719 186.234375 81.488281 185.957031 81.195312 185.664062 C 80.871094 185.339844 80.566406 185.046875 80.28125 184.773438 L 74.019531 191.039062 C 73.667969 191.386719 73.105469 191.386719 72.761719 191.039062 C 72.410156 190.6875 72.410156 190.125 72.757812 189.777344 L 78.960938 183.578125 C 77.863281 182.621094 77.25 182.210938 77.25 182.210938 C 77.25 182.210938 72.027344 186.902344 69.183594 189.742188 C 66.015625 192.910156 68.890625 195.828125 67.644531 197.074219 C 66.398438 198.316406 60.683594 202.945312 57.769531 205.863281 C 52.421875 211.210938 53 212.042969 53.867188 212.910156 C 54.734375 213.78125 55.566406 214.359375 60.914062 209.011719 C 63.832031 206.09375 68.457031 200.386719 69.703125 199.140625 C 70.949219 197.890625 73.824219 200.808594 77.039062 197.597656 Z M 77.039062 197.597656 " fill-opacity="1" fill-rule="nonzero"/></g><g fill="#8cc342" fill-opacity="0.4"><g transform="translate(118.868713, 150.879124)"><g><path d="M 23.984375 -2.265625 C 23.296875 -1.691406 22.195312 -1.117188 20.6875 -0.546875 C 19.175781 0.015625 17.535156 0.296875 15.765625 0.296875 C 12.921875 0.296875 10.445312 -0.316406 8.34375 -1.546875 C 6.238281 -2.785156 4.628906 -4.445312 3.515625 -6.53125 C 2.410156 -8.625 1.859375 -10.921875 1.859375 -13.421875 C 1.859375 -16.160156 2.410156 -18.601562 3.515625 -20.75 C 4.628906 -22.90625 6.1875 -24.582031 8.1875 -25.78125 C 10.195312 -26.988281 12.507812 -27.59375 15.125 -27.59375 C 16.78125 -27.59375 18.3125 -27.367188 19.71875 -26.921875 C 21.132812 -26.472656 22.375 -25.914062 23.4375 -25.25 L 21.3125 -20.171875 C 19.363281 -21.648438 17.363281 -22.390625 15.3125 -22.390625 C 13.925781 -22.390625 12.628906 -22.003906 11.421875 -21.234375 C 10.210938 -20.472656 9.25 -19.429688 8.53125 -18.109375 C 7.8125 -16.785156 7.453125 -15.320312 7.453125 -13.71875 C 7.453125 -11.96875 7.785156 -10.429688 8.453125 -9.109375 C 9.117188 -7.785156 10.066406 -6.75 11.296875 -6 C 12.535156 -5.257812 13.984375 -4.890625 15.640625 -4.890625 C 16.984375 -4.890625 18.1875 -5.101562 19.25 -5.53125 C 20.3125 -5.96875 21.148438 -6.484375 21.765625 -7.078125 Z M 23.984375 -2.265625 "/></g></g></g><g fill="#8cc342" fill-opacity="0.4"><g transform="translate(148.383722, 150.879124)"><g><path d="M 1.859375 -13.609375 C 1.859375 -16.078125 2.476562 -18.382812 3.71875 -20.53125 C 4.96875 -22.6875 6.660156 -24.398438 8.796875 -25.671875 C 10.941406 -26.953125 13.265625 -27.59375 15.765625 -27.59375 C 18.253906 -27.59375 20.566406 -26.953125 22.703125 -25.671875 C 24.847656 -24.398438 26.554688 -22.6875 27.828125 -20.53125 C 29.097656 -18.382812 29.734375 -16.078125 29.734375 -13.609375 C 29.734375 -11.085938 29.097656 -8.765625 27.828125 -6.640625 C 26.554688 -4.515625 24.847656 -2.828125 22.703125 -1.578125 C 20.566406 -0.328125 18.253906 0.296875 15.765625 0.296875 C 13.234375 0.296875 10.90625 -0.328125 8.78125 -1.578125 C 6.65625 -2.828125 4.96875 -4.515625 3.71875 -6.640625 C 2.476562 -8.765625 1.859375 -11.085938 1.859375 -13.609375 Z M 7.421875 -13.609375 C 7.421875 -12.023438 7.796875 -10.566406 8.546875 -9.234375 C 9.296875 -7.898438 10.320312 -6.84375 11.625 -6.0625 C 12.925781 -5.28125 14.363281 -4.890625 15.9375 -4.890625 C 17.476562 -4.890625 18.878906 -5.28125 20.140625 -6.0625 C 21.398438 -6.84375 22.382812 -7.894531 23.09375 -9.21875 C 23.8125 -10.539062 24.171875 -12.003906 24.171875 -13.609375 C 24.171875 -15.242188 23.800781 -16.726562 23.0625 -18.0625 C 22.320312 -19.394531 21.3125 -20.445312 20.03125 -21.21875 C 18.757812 -22 17.347656 -22.390625 15.796875 -22.390625 C 14.234375 -22.390625 12.816406 -22 11.546875 -21.21875 C 10.273438 -20.445312 9.269531 -19.394531 8.53125 -18.0625 C 7.789062 -16.726562 7.421875 -15.242188 7.421875 -13.609375 Z M 7.421875 -13.609375 "/></g></g></g><g fill="#8cc342" fill-opacity="0.4"><g transform="translate(183.64585, 150.879124)"><g><path d="M 1.859375 -13.609375 C 1.859375 -16.078125 2.476562 -18.382812 3.71875 -20.53125 C 4.96875 -22.6875 6.660156 -24.398438 8.796875 -25.671875 C 10.941406 -26.953125 13.265625 -27.59375 15.765625 -27.59375 C 18.253906 -27.59375 20.566406 -26.953125 22.703125 -25.671875 C 24.847656 -24.398438 26.554688 -22.6875 27.828125 -20.53125 C 29.097656 -18.382812 29.734375 -16.078125 29.734375 -13.609375 C 29.734375 -11.085938 29.097656 -8.765625 27.828125 -6.640625 C 26.554688 -4.515625 24.847656 -2.828125 22.703125 -1.578125 C 20.566406 -0.328125 18.253906 0.296875 15.765625 0.296875 C 13.234375 0.296875 10.90625 -0.328125 8.78125 -1.578125 C 6.65625 -2.828125 4.96875 -4.515625 3.71875 -6.640625 C 2.476562 -8.765625 1.859375 -11.085938 1.859375 -13.609375 Z M 7.421875 -13.609375 C 7.421875 -12.023438 7.796875 -10.566406 8.546875 -9.234375 C 9.296875 -7.898438 10.320312 -6.84375 11.625 -6.0625 C 12.925781 -5.28125 14.363281 -4.890625 15.9375 -4.890625 C 17.476562 -4.890625 18.878906 -5.28125 20.140625 -6.0625 C 21.398438 -6.84375 22.382812 -7.894531 23.09375 -9.21875 C 23.8125 -10.539062 24.171875 -12.003906 24.171875 -13.609375 C 24.171875 -15.242188 23.800781 -16.726562 23.0625 -18.0625 C 22.320312 -19.394531 21.3125 -20.445312 20.03125 -21.21875 C 18.757812 -22 17.347656 -22.390625 15.796875 -22.390625 C 14.234375 -22.390625 12.816406 -22 11.546875 -21.21875 C 10.273438 -20.445312 9.269531 -19.394531 8.53125 -18.0625 C 7.789062 -16.726562 7.421875 -15.242188 7.421875 -13.609375 Z M 7.421875 -13.609375 "/></g></g></g><g fill="#8cc342" fill-opacity="0.4"><g transform="translate(218.907979, 150.879124)"><g><path d="M 8.828125 -16.203125 L 9.640625 -17.234375 L 18.546875 -27.296875 L 25.515625 -27.296875 L 14.234375 -15.046875 L 25.546875 0 L 18.71875 0 L 10.3125 -11.640625 L 8.96875 -10.3125 L 8.96875 0 L 3.515625 0 L 3.515625 -27.296875 L 8.96875 -27.296875 L 8.96875 -17.578125 Z M 8.828125 -16.203125 "/></g></g></g><g fill="#8cc342" fill-opacity="0.4"><g transform="translate(248.682539, 150.879124)"><g><path d="M 22.140625 -27.296875 L 22.140625 -22.09375 L 8.90625 -22.09375 L 8.90625 -16.28125 L 20.609375 -16.28125 L 20.609375 -11.09375 L 8.90625 -11.09375 L 8.90625 -5.1875 L 22.65625 -5.1875 L 22.65625 0 L 3.515625 0 L 3.515625 -27.296875 Z M 22.140625 -27.296875 "/></g></g></g><g fill="#8cc342" fill-opacity="1"><g transform="translate(118.868713, 150.879124)"><g><path d="M 23.984375 -2.265625 C 23.296875 -1.691406 22.195312 -1.117188 20.6875 -0.546875 C 19.175781 0.015625 17.535156 0.296875 15.765625 0.296875 C 12.921875 0.296875 10.445312 -0.316406 8.34375 -1.546875 C 6.238281 -2.785156 4.628906 -4.445312 3.515625 -6.53125 C 2.410156 -8.625 1.859375 -10.921875 1.859375 -13.421875 C 1.859375 -16.160156 2.410156 -18.601562 3.515625 -20.75 C 4.628906 -22.90625 6.1875 -24.582031 8.1875 -25.78125 C 10.195312 -26.988281 12.507812 -27.59375 15.125 -27.59375 C 16.78125 -27.59375 18.3125 -27.367188 19.71875 -26.921875 C 21.132812 -26.472656 22.375 -25.914062 23.4375 -25.25 L 21.3125 -20.171875 C 19.363281 -21.648438 17.363281 -22.390625 15.3125 -22.390625 C 13.925781 -22.390625 12.628906 -22.003906 11.421875 -21.234375 C 10.210938 -20.472656 9.25 -19.429688 8.53125 -18.109375 C 7.8125 -16.785156 7.453125 -15.320312 7.453125 -13.71875 C 7.453125 -11.96875 7.785156 -10.429688 8.453125 -9.109375 C 9.117188 -7.785156 10.066406 -6.75 11.296875 -6 C 12.535156 -5.257812 13.984375 -4.890625 15.640625 -4.890625 C 16.984375 -4.890625 18.1875 -5.101562 19.25 -5.53125 C 20.3125 -5.96875 21.148438 -6.484375 21.765625 -7.078125 Z M 23.984375 -2.265625 "/></g></g></g><g fill="#8cc342" fill-opacity="1"><g transform="translate(148.383722, 150.879124)"><g><path d="M 1.859375 -13.609375 C 1.859375 -16.078125 2.476562 -18.382812 3.71875 -20.53125 C 4.96875 -22.6875 6.660156 -24.398438 8.796875 -25.671875 C 10.941406 -26.953125 13.265625 -27.59375 15.765625 -27.59375 C 18.253906 -27.59375 20.566406 -26.953125 22.703125 -25.671875 C 24.847656 -24.398438 26.554688 -22.6875 27.828125 -20.53125 C 29.097656 -18.382812 29.734375 -16.078125 29.734375 -13.609375 C 29.734375 -11.085938 29.097656 -8.765625 27.828125 -6.640625 C 26.554688 -4.515625 24.847656 -2.828125 22.703125 -1.578125 C 20.566406 -0.328125 18.253906 0.296875 15.765625 0.296875 C 13.234375 0.296875 10.90625 -0.328125 8.78125 -1.578125 C 6.65625 -2.828125 4.96875 -4.515625 3.71875 -6.640625 C 2.476562 -8.765625 1.859375 -11.085938 1.859375 -13.609375 Z M 7.421875 -13.609375 C 7.421875 -12.023438 7.796875 -10.566406 8.546875 -9.234375 C 9.296875 -7.898438 10.320312 -6.84375 11.625 -6.0625 C 12.925781 -5.28125 14.363281 -4.890625 15.9375 -4.890625 C 17.476562 -4.890625 18.878906 -5.28125 20.140625 -6.0625 C 21.398438 -6.84375 22.382812 -7.894531 23.09375 -9.21875 C 23.8125 -10.539062 24.171875 -12.003906 24.171875 -13.609375 C 24.171875 -15.242188 23.800781 -16.726562 23.0625 -18.0625 C 22.320312 -19.394531 21.3125 -20.445312 20.03125 -21.21875 C 18.757812 -22 17.347656 -22.390625 15.796875 -22.390625 C 14.234375 -22.390625 12.816406 -22 11.546875 -21.21875 C 10.273438 -20.445312 9.269531 -19.394531 8.53125 -18.0625 C 7.789062 -16.726562 7.421875 -15.242188 7.421875 -13.609375 Z M 7.421875 -13.609375 "/></g></g></g><g fill="#8cc342" fill-opacity="1"><g transform="translate(183.64585, 150.879124)"><g><path d="M 1.859375 -13.609375 C 1.859375 -16.078125 2.476562 -18.382812 3.71875 -20.53125 C 4.96875 -22.6875 6.660156 -24.398438 8.796875 -25.671875 C 10.941406 -26.953125 13.265625 -27.59375 15.765625 -27.59375 C 18.253906 -27.59375 20.566406 -26.953125 22.703125 -25.671875 C 24.847656 -24.398438 26.554688 -22.6875 27.828125 -20.53125 C 29.097656 -18.382812 29.734375 -16.078125 29.734375 -13.609375 C 29.734375 -11.085938 29.097656 -8.765625 27.828125 -6.640625 C 26.554688 -4.515625 24.847656 -2.828125 22.703125 -1.578125 C 20.566406 -0.328125 18.253906 0.296875 15.765625 0.296875 C 13.234375 0.296875 10.90625 -0.328125 8.78125 -1.578125 C 6.65625 -2.828125 4.96875 -4.515625 3.71875 -6.640625 C 2.476562 -8.765625 1.859375 -11.085938 1.859375 -13.609375 Z M 7.421875 -13.609375 C 7.421875 -12.023438 7.796875 -10.566406 8.546875 -9.234375 C 9.296875 -7.898438 10.320312 -6.84375 11.625 -6.0625 C 12.925781 -5.28125 14.363281 -4.890625 15.9375 -4.890625 C 17.476562 -4.890625 18.878906 -5.28125 20.140625 -6.0625 C 21.398438 -6.84375 22.382812 -7.894531 23.09375 -9.21875 C 23.8125 -10.539062 24.171875 -12.003906 24.171875 -13.609375 C 24.171875 -15.242188 23.800781 -16.726562 23.0625 -18.0625 C 22.320312 -19.394531 21.3125 -20.445312 20.03125 -21.21875 C 18.757812 -22 17.347656 -22.390625 15.796875 -22.390625 C 14.234375 -22.390625 12.816406 -22 11.546875 -21.21875 C 10.273438 -20.445312 9.269531 -19.394531 8.53125 -18.0625 C 7.789062 -16.726562 7.421875 -15.242188 7.421875 -13.609375 Z M 7.421875 -13.609375 "/></g></g></g><g fill="#8cc342" fill-opacity="1"><g transform="translate(218.907979, 150.879124)"><g><path d="M 8.828125 -16.203125 L 9.640625 -17.234375 L 18.546875 -27.296875 L 25.515625 -27.296875 L 14.234375 -15.046875 L 25.546875 0 L 18.71875 0 L 10.3125 -11.640625 L 8.96875 -10.3125 L 8.96875 0 L 3.515625 0 L 3.515625 -27.296875 L 8.96875 -27.296875 L 8.96875 -17.578125 Z M 8.828125 -16.203125 "/></g></g></g><g fill="#8cc342" fill-opacity="1"><g transform="translate(248.682539, 150.879124)"><g><path d="M 22.140625 -27.296875 L 22.140625 -22.09375 L 8.90625 -22.09375 L 8.90625 -16.28125 L 20.609375 -16.28125 L 20.609375 -11.09375 L 8.90625 -11.09375 L 8.90625 -5.1875 L 22.65625 -5.1875 L 22.65625 0 L 3.515625 0 L 3.515625 -27.296875 Z M 22.140625 -27.296875 "/></g></g></g><g fill="#8cc342" fill-opacity="0.4"><g transform="translate(285.576885, 222.99791)"><g><path d="M 23.984375 -2.265625 C 23.296875 -1.691406 22.195312 -1.117188 20.6875 -0.546875 C 19.175781 0.015625 17.535156 0.296875 15.765625 0.296875 C 12.921875 0.296875 10.445312 -0.316406 8.34375 -1.546875 C 6.238281 -2.785156 4.628906 -4.445312 3.515625 -6.53125 C 2.410156 -8.625 1.859375 -10.921875 1.859375 -13.421875 C 1.859375 -16.160156 2.410156 -18.601562 3.515625 -20.75 C 4.628906 -22.90625 6.1875 -24.582031 8.1875 -25.78125 C 10.195312 -26.988281 12.507812 -27.59375 15.125 -27.59375 C 16.78125 -27.59375 18.3125 -27.367188 19.71875 -26.921875 C 21.132812 -26.472656 22.375 -25.914062 23.4375 -25.25 L 21.3125 -20.171875 C 19.363281 -21.648438 17.363281 -22.390625 15.3125 -22.390625 C 13.925781 -22.390625 12.628906 -22.003906 11.421875 -21.234375 C 10.210938 -20.472656 9.25 -19.429688 8.53125 -18.109375 C 7.8125 -16.785156 7.453125 -15.320312 7.453125 -13.71875 C 7.453125 -11.96875 7.785156 -10.429688 8.453125 -9.109375 C 9.117188 -7.785156 10.066406 -6.75 11.296875 -6 C 12.535156 -5.257812 13.984375 -4.890625 15.640625 -4.890625 C 16.984375 -4.890625 18.1875 -5.101562 19.25 -5.53125 C 20.3125 -5.96875 21.148438 -6.484375 21.765625 -7.078125 Z M 23.984375 -2.265625 "/></g></g></g><g fill="#8cc342" fill-opacity="0.4"><g transform="translate(315.091894, 222.99791)"><g><path d="M 3.515625 -27.296875 L 11.671875 -27.296875 C 15.160156 -27.296875 18.03125 -26.617188 20.28125 -25.265625 C 22.53125 -23.921875 24.164062 -22.175781 25.1875 -20.03125 C 26.21875 -17.894531 26.734375 -15.601562 26.734375 -13.15625 C 26.734375 -10.539062 26.113281 -8.226562 24.875 -6.21875 C 23.644531 -4.21875 21.984375 -2.679688 19.890625 -1.609375 C 17.804688 -0.535156 15.515625 0 13.015625 0 L 3.515625 0 Z M 12.09375 -5.1875 C 14.882812 -5.1875 17.09375 -5.898438 18.71875 -7.328125 C 20.351562 -8.765625 21.171875 -10.832031 21.171875 -13.53125 C 21.171875 -15.707031 20.71875 -17.4375 19.8125 -18.71875 C 18.914062 -20.007812 17.867188 -20.898438 16.671875 -21.390625 C 15.472656 -21.890625 14.34375 -22.140625 13.28125 -22.140625 L 8.90625 -22.140625 L 8.90625 -5.1875 Z M 12.09375 -5.1875 "/></g></g></g><g fill="#8cc342" fill-opacity="0.4"><g transform="translate(347.350692, 222.99791)"><g><path d="M 17.015625 -5.34375 L 7.96875 -5.34375 L 5.75 0 L 0.4375 0 L 12.75 -28.359375 L 13.046875 -28.359375 L 25.359375 0 L 19.125 0 Z M 15.234375 -9.859375 L 12.609375 -16.5 L 9.859375 -9.859375 Z M 15.234375 -9.859375 "/></g></g></g><g fill="#8cc342" fill-opacity="1"><g transform="translate(285.576885, 222.99791)"><g><path d="M 23.984375 -2.265625 C 23.296875 -1.691406 22.195312 -1.117188 20.6875 -0.546875 C 19.175781 0.015625 17.535156 0.296875 15.765625 0.296875 C 12.921875 0.296875 10.445312 -0.316406 8.34375 -1.546875 C 6.238281 -2.785156 4.628906 -4.445312 3.515625 -6.53125 C 2.410156 -8.625 1.859375 -10.921875 1.859375 -13.421875 C 1.859375 -16.160156 2.410156 -18.601562 3.515625 -20.75 C 4.628906 -22.90625 6.1875 -24.582031 8.1875 -25.78125 C 10.195312 -26.988281 12.507812 -27.59375 15.125 -27.59375 C 16.78125 -27.59375 18.3125 -27.367188 19.71875 -26.921875 C 21.132812 -26.472656 22.375 -25.914062 23.4375 -25.25 L 21.3125 -20.171875 C 19.363281 -21.648438 17.363281 -22.390625 15.3125 -22.390625 C 13.925781 -22.390625 12.628906 -22.003906 11.421875 -21.234375 C 10.210938 -20.472656 9.25 -19.429688 8.53125 -18.109375 C 7.8125 -16.785156 7.453125 -15.320312 7.453125 -13.71875 C 7.453125 -11.96875 7.785156 -10.429688 8.453125 -9.109375 C 9.117188 -7.785156 10.066406 -6.75 11.296875 -6 C 12.535156 -5.257812 13.984375 -4.890625 15.640625 -4.890625 C 16.984375 -4.890625 18.1875 -5.101562 19.25 -5.53125 C 20.3125 -5.96875 21.148438 -6.484375 21.765625 -7.078125 Z M 23.984375 -2.265625 "/></g></g></g><g fill="#8cc342" fill-opacity="1"><g transform="translate(315.091894, 222.99791)"><g><path d="M 3.515625 -27.296875 L 11.671875 -27.296875 C 15.160156 -27.296875 18.03125 -26.617188 20.28125 -25.265625 C 22.53125 -23.921875 24.164062 -22.175781 25.1875 -20.03125 C 26.21875 -17.894531 26.734375 -15.601562 26.734375 -13.15625 C 26.734375 -10.539062 26.113281 -8.226562 24.875 -6.21875 C 23.644531 -4.21875 21.984375 -2.679688 19.890625 -1.609375 C 17.804688 -0.535156 15.515625 0 13.015625 0 L 3.515625 0 Z M 12.09375 -5.1875 C 14.882812 -5.1875 17.09375 -5.898438 18.71875 -7.328125 C 20.351562 -8.765625 21.171875 -10.832031 21.171875 -13.53125 C 21.171875 -15.707031 20.71875 -17.4375 19.8125 -18.71875 C 18.914062 -20.007812 17.867188 -20.898438 16.671875 -21.390625 C 15.472656 -21.890625 14.34375 -22.140625 13.28125 -22.140625 L 8.90625 -22.140625 L 8.90625 -5.1875 Z M 12.09375 -5.1875 "/></g></g></g><g fill="#8cc342" fill-opacity="1"><g transform="translate(347.350692, 222.99791)"><g><path d="M 17.015625 -5.34375 L 7.96875 -5.34375 L 5.75 0 L 0.4375 0 L 12.75 -28.359375 L 13.046875 -28.359375 L 25.359375 0 L 19.125 0 Z M 15.234375 -9.859375 L 12.609375 -16.5 L 9.859375 -9.859375 Z M 15.234375 -9.859375 "/></g></g></g></svg>